<svg viewBox="128.0868 13.9489 24.5643 37.7081" width="24.5643" height="37.7081" xmlns="http://www.w3.org/2000/svg">
<path d="M 152.304 18.051 C 151.98 17.555 151.506 17.54 150.966 17.524 C 150.905 17.522 150.843 17.52 150.78 17.518 C 150.732 17.516 150.68 17.517 150.625 17.517 C 150.406 17.521 150.15 17.525 150.021 17.341 C 149.871 17.128 149.885 16.716 149.897 16.375 C 149.901 16.268 149.904 16.167 149.902 16.083 C 149.881 15.292 149.837 14.453 149.532 14.172 C 149.302 13.961 148.613 13.99 147.979 14.017 C 147.773 14.026 147.573 14.035 147.396 14.035 L 133.883 14.035 C 133.61 14.035 133.325 14.012 133.045 13.991 C 132.499 13.948 131.972 13.907 131.598 14.035 C 131.054 14.22 131.018 15.196 130.983 16.114 L 130.981 16.164 C 130.952 16.922 130.764 17.507 130.141 17.448 C 129.417 17.381 128.696 17.359 128.369 18.015 C 127.982 18.791 128.062 19.603 128.204 21.057 C 128.225 21.265 128.247 21.485 128.268 21.721 L 152.513 21.721 C 152.527 21.549 152.542 21.379 152.556 21.211 C 152.67 19.903 152.769 18.763 152.304 18.051 Z" fill="#8047F8"/>
<path fill-rule="evenodd" clip-rule="evenodd" d="M 130.156 23.164 C 130.535 28.288 130.91 33.419 131.284 38.55 L 131.284 38.553 C 131.488 41.339 131.691 44.125 131.895 46.91 L 132.669 46.91 C 132.721 47.345 132.782 47.884 132.845 48.451 C 132.974 49.603 133.117 50.875 133.237 51.657 L 133.323 51.657 C 134.11 51.369 139.558 49.041 139.56 39.771 C 139.559 39.744 139.56 39.718 139.563 39.692 L 138.217 39.692 C 138.152 39.691 138.089 39.669 138.037 39.63 C 137.986 39.59 137.949 39.535 137.932 39.473 C 137.801 39.149 137.695 38.815 137.616 38.475 C 136.824 38.923 136.196 39.605 135.82 40.426 C 135.463 39.585 135.416 38.647 135.688 37.776 C 135.959 36.904 136.532 36.155 137.306 35.658 C 137.316 32.953 138.329 30.346 140.153 28.329 L 140.181 28.304 C 140.234 28.258 140.302 28.233 140.373 28.232 C 140.413 28.233 140.453 28.241 140.491 28.258 C 140.528 28.275 140.562 28.299 140.589 28.329 C 142.434 30.349 143.442 32.981 143.411 35.702 C 144.199 36.185 144.784 36.933 145.056 37.81 C 145.328 38.686 145.269 39.63 144.891 40.467 C 144.517 39.645 143.887 38.961 143.094 38.516 C 143.046 38.846 142.957 39.168 142.829 39.476 C 142.784 39.607 142.696 39.692 142.607 39.692 L 141.172 39.692 C 141.174 39.707 141.176 39.723 141.177 39.739 L 141.177 39.743 L 141.177 39.75 C 141.178 39.764 141.178 39.778 141.177 39.791 C 141.197 49.327 146.989 51.492 147.477 51.657 L 147.644 51.657 C 147.686 50.906 147.825 49.87 147.961 48.859 C 148.054 48.163 148.145 47.479 148.203 46.91 L 148.985 46.91 C 149.236 43.402 149.493 39.904 149.751 36.405 L 149.751 36.403 L 149.751 36.402 C 150.081 31.928 150.41 27.453 150.725 22.958 L 130.207 22.958 C 130.148 22.969 130.152 23.066 130.156 23.164 Z M 140.373 28.232 L 140.371 28.232 L 140.374 28.232 L 140.373 28.232 Z" fill="#8047F8"/>
</svg>